HIERARCHY
ROOT Hips
{
	OFFSET 0.000000 89.005402 0.000000
	CHANNELS 6 Xposition Yposition Zposition Xrotation Yrotation Zrotation
	JOINT Spine
	{
		OFFSET 0.116900 10.681000 0.373400
		CHANNELS 3 Xrotation Yrotation Zrotation
		JOINT Spine1
		{
			OFFSET 0.000000 13.840401 0.053500
			CHANNELS 3 Xrotation Yrotation Zrotation
			JOINT Spine2
			{
				OFFSET 0.000000 14.712700 -0.366200
				CHANNELS 3 Xrotation Yrotation Zrotation
				JOINT Neck
				{
					OFFSET 0.000000 35.415497 -3.314200
					CHANNELS 3 Xrotation Yrotation Zrotation
					JOINT Head
					{
						OFFSET 0.000000 16.899200 1.218300
						CHANNELS 3 Xrotation Yrotation Zrotation
						JOINT HeadTop_End
						{
							OFFSET 0.000000 22.206207 2.192500
							CHANNELS 3 Xrotation Yrotation Zrotation
							End Site
							{
								OFFSET 0.000000 22.314178 0.000000
							}
						}
					}
				}
				JOINT LeftShoulder
				{
					OFFSET 12.896400 26.716293 -4.548400
					CHANNELS 3 Xrotation Yrotation Zrotation
					JOINT LeftArm
					{
						OFFSET 19.027000 -4.857010 -1.718400
						CHANNELS 3 Xrotation Yrotation Zrotation
						JOINT LeftForeArm
						{
							OFFSET 24.179897 0.000000 0.000000
							CHANNELS 3 Xrotation Yrotation Zrotation
							JOINT LeftHand
							{
								OFFSET 27.156403 0.000000 0.000000
								CHANNELS 3 Xrotation Yrotation Zrotation
								JOINT LeftHandIndex1
								{
									OFFSET 16.441200 0.000000 0.000000
									CHANNELS 3 Xrotation Yrotation Zrotation
									JOINT LeftHandIndex2
									{
										OFFSET 4.821899 0.000000 0.000000
										CHANNELS 3 Xrotation Yrotation Zrotation
										JOINT LeftHandIndex3
										{
											OFFSET 6.386497 0.000000 0.000000
											CHANNELS 3 Xrotation Yrotation Zrotation
											JOINT LeftHandIndex4
											{
												OFFSET 5.188988 0.000000 0.000000
												CHANNELS 3 Xrotation Yrotation Zrotation
												End Site
												{
													OFFSET -0.178703 5.185913 0.000177
												}
											}
										}
									}
								}
								JOINT LeftHandThumb1
								{
									OFFSET 6.534897 -5.032593 5.900300
									CHANNELS 3 Xrotation Yrotation Zrotation
									JOINT LeftHandThumb2
									{
										OFFSET 3.818176 -2.204422 2.204423
										CHANNELS 3 Xrotation Yrotation Zrotation
										JOINT LeftHandThumb3
										{
											OFFSET 3.252098 -1.877594 1.877601
											CHANNELS 3 Xrotation Yrotation Zrotation
											JOINT LeftHandThumb4
											{
												OFFSET 5.251778 -3.032120 3.032117
												CHANNELS 3 Xrotation Yrotation Zrotation
												End Site
												{
													OFFSET 0.000023 6.780014 0.000000
												}
											}
										}
									}
								}
							}
						}
					}
				}
				JOINT RightShoulder
				{
					OFFSET -12.896300 26.716293 -4.548400
					CHANNELS 3 Xrotation Yrotation Zrotation
					JOINT RightArm
					{
						OFFSET -19.027000 -4.857010 -1.718400
						CHANNELS 3 Xrotation Yrotation Zrotation
						JOINT RightForeArm
						{
							OFFSET -24.179897 0.000000 0.000000
							CHANNELS 3 Xrotation Yrotation Zrotation
							JOINT RightHand
							{
								OFFSET -27.156403 0.000000 0.000000
								CHANNELS 3 Xrotation Yrotation Zrotation
								JOINT RightHandThumb1
								{
									OFFSET -6.591202 -4.852203 5.988100
									CHANNELS 3 Xrotation Yrotation Zrotation
									JOINT RightHandThumb2
									{
										OFFSET -3.818176 -2.204422 2.204423
										CHANNELS 3 Xrotation Yrotation Zrotation
										JOINT RightHandThumb3
										{
											OFFSET -3.252098 -1.877594 1.877601
											CHANNELS 3 Xrotation Yrotation Zrotation
											JOINT RightHandThumb4
											{
												OFFSET -5.251778 -3.032120 3.032117
												CHANNELS 3 Xrotation Yrotation Zrotation
												End Site
												{
													OFFSET -0.000023 6.780014 0.000000
												}
											}
										}
									}
								}
								JOINT RightHandIndex1
								{
									OFFSET -16.029404 0.000000 0.000000
									CHANNELS 3 Xrotation Yrotation Zrotation
									JOINT RightHandIndex2
									{
										OFFSET -5.213303 0.000000 0.000000
										CHANNELS 3 Xrotation Yrotation Zrotation
										JOINT RightHandIndex3
										{
											OFFSET -6.386528 0.000000 0.000000
											CHANNELS 3 Xrotation Yrotation Zrotation
											JOINT RightHandIndex4
											{
												OFFSET -5.189026 0.000000 0.000000
												CHANNELS 3 Xrotation Yrotation Zrotation
												End Site
												{
													OFFSET 0.236702 5.183624 0.001972
												}
											}
										}
									}
								}
							}
						}
					}
				}
			}
		}
	}
	JOINT LeftUpLeg
	{
		OFFSET 14.073000 -7.904099 -1.463000
		CHANNELS 3 Xrotation Yrotation Zrotation
		JOINT LeftLeg
		{
			OFFSET -0.109806 -34.073280 4.093200
			CHANNELS 3 Xrotation Yrotation Zrotation
			JOINT LeftFoot
			{
				OFFSET 0.109806 -29.899420 -6.319000
				CHANNELS 3 Xrotation Yrotation Zrotation
				JOINT LeftToeBase
				{
					OFFSET 1.551100 -14.988700 20.535801
					CHANNELS 3 Xrotation Yrotation Zrotation
					JOINT LeftToe_End
					{
						OFFSET 0.221200 0.570800 13.248301
						CHANNELS 3 Xrotation Yrotation Zrotation
						End Site
						{
							OFFSET 0.000000 13.262435 0.000000
						}
					}
				}
			}
		}
	}
	JOINT RightUpLeg
	{
		OFFSET -13.839300 -7.904099 -1.463000
		CHANNELS 3 Xrotation Yrotation Zrotation
		JOINT RightLeg
		{
			OFFSET 0.109694 -34.073219 4.093300
			CHANNELS 3 Xrotation Yrotation Zrotation
			JOINT RightFoot
			{
				OFFSET -0.109694 -29.899384 -6.319200
				CHANNELS 3 Xrotation Yrotation Zrotation
				JOINT RightToeBase
				{
					OFFSET -1.551100 -14.988700 20.535801
					CHANNELS 3 Xrotation Yrotation Zrotation
					JOINT RightToe_End
					{
						OFFSET -0.221200 0.570900 13.248299
						CHANNELS 3 Xrotation Yrotation Zrotation
						End Site
						{
							OFFSET 0.000000 13.262440 0.000000
						}
					}
				}
			}
		}
	}
}
MOTION
Frames: 5
Frame Time: 0.033333
0.090746 79.860466 -1.037844 8.212080 -1.982305 2.221291 12.472493 1.867948 0.768168 9.072376 3.710781 -0.748191 -2.800563 3.785224 0.032189 -18.892489 -2.833654 -3.281427 -2.228674 -3.756390 -1.546780 0.000000 -0.000000 0.000000 0.597756 -5.276346 -7.443212 18.489635 6.599891 -69.411278 -49.878204 -71.843345 -41.028974 1.021057 -16.760142 -11.545377 2.945806 -13.960499 -65.948086 -2.810864 -2.115296 -110.017491 -1.269689 -2.027202 -64.216551 0.000003 -0.000001 -0.000000 16.022642 -12.317752 2.281320 35.532352 41.360958 -28.927371 31.801344 37.799261 -15.734644 0.000001 0.000002 -0.000000 10.968836 -6.867904 12.240464 -15.072050 25.483975 47.280338 -32.099280 83.161037 26.886283 3.902710 27.520536 -6.803830 16.022688 12.317760 -2.281289 35.532331 -41.360989 28.927326 31.801323 -37.799267 15.734650 0.000001 0.000002 -0.000000 2.945837 13.960488 65.948127 -2.810821 2.115304 110.017477 -1.269680 2.027214 64.216557 0.000001 0.000001 -0.000000 -24.485371 7.256794 4.556415 67.031060 1.237603 0.129250 9.365495 0.119977 0.469128 -58.273706 13.185104 -5.888681 -0.000000 0.000001 0.000000 7.288585 -2.104722 -4.734048 29.407007 5.377713 0.347076 -36.668052 -2.609353 -0.670543 -2.757589 3.560834 -0.150076 0.000000 0.000000 -0.000000 
-0.983193 77.794159 6.411772 11.490729 -5.390137 3.346826 11.117869 3.005748 -0.220587 6.104565 5.810329 -1.582346 -5.841227 6.046320 -0.393443 -13.442295 -2.299814 -3.738618 -3.100419 -4.029205 0.271071 -0.000000 0.000000 0.000000 1.671748 -1.031612 -3.999259 23.966594 16.242675 -68.380494 -23.839752 -66.864991 -27.750975 -2.440176 -17.993251 -9.096473 3.045233 -13.671121 -65.889988 -2.697372 -2.237946 -109.335831 -1.215317 -2.070413 -65.553185 -0.000001 -0.000001 0.000001 17.423422 -12.931346 2.175806 36.110790 41.466253 -29.858343 31.500850 38.821077 -16.923175 0.000001 0.000001 0.000003 7.069667 -4.051865 4.323038 -18.851585 26.201698 48.661328 -39.065636 84.359748 30.790066 22.880365 53.428011 -17.678522 17.423444 12.931356 -2.175791 36.110852 -41.466280 29.858370 31.500832 -38.821084 16.923197 0.000000 0.000002 0.000001 3.045261 13.671088 65.890036 -2.697308 2.237922 109.335804 -1.215301 2.070402 65.553198 -0.000003 0.000000 0.000001 -45.309545 5.168236 2.472171 71.374302 0.792717 -2.760543 -13.383833 2.754500 5.843077 -20.890110 25.502929 -13.584127 0.000000 -0.000001 0.000000 5.900253 -1.537356 -6.494050 35.540647 6.833677 0.423534 -32.850068 -1.148891 -1.491862 -20.418770 3.360140 0.534920 -0.000000 -0.000000 -0.000000 
-0.760882 76.440369 10.610041 10.105563 -2.212940 1.821470 10.283080 3.934820 -0.604125 4.459568 7.494042 -1.362822 -7.522075 7.632845 0.184173 -5.008120 -3.956782 -6.849631 -2.686342 -7.689911 3.629984 0.000000 0.000000 0.000000 3.205716 3.630618 -0.420443 25.807540 22.656173 -62.592666 8.963924 -59.627599 -14.325120 -7.811409 -19.869495 -2.789855 3.151897 -13.358181 -65.827027 -2.571902 -2.367454 -108.599140 -1.159164 -2.120699 -66.997278 -0.000001 -0.000001 -0.000001 18.931886 -13.623652 2.077654 36.739499 41.577889 -30.868002 31.214603 39.958826 -18.215959 -0.000001 -0.000001 0.000002 2.159527 3.660068 -3.717418 -23.681635 22.193607 49.478679 -72.433569 86.692210 60.472985 -1.093441 32.956629 5.784906 18.931900 13.623645 -2.077616 36.739540 -41.577848 30.868036 31.214521 -39.958826 18.215934 0.000000 0.000003 -0.000000 3.151915 13.358193 65.827055 -2.571888 2.367436 108.599120 -1.159197 2.120671 66.997271 0.000002 0.000000 -0.000001 -57.486922 0.178518 -2.355335 60.718906 11.485550 1.366927 -16.652689 8.406736 -4.161143 -1.741676 4.084197 -20.585528 -0.000001 0.000001 -0.000001 6.640317 -1.622566 -4.419482 43.394313 4.572321 0.186980 -28.390759 -3.616030 0.754480 -32.843470 3.093379 0.597793 -0.000000 0.000000 -0.000000 
-1.029837 75.155815 14.301771 5.356520 1.182074 0.009425 10.006815 4.965462 -1.155536 4.014549 9.301060 -1.554157 -7.987247 9.418086 0.404003 3.769058 -7.164761 -7.672937 -1.788479 -11.301946 5.616214 0.000001 -0.000000 0.000000 3.617208 5.002696 2.761942 24.690174 28.945806 -55.183564 35.265943 -52.652351 -5.976508 -8.825173 -19.357746 4.663452 3.264313 -13.025798 -65.759948 -2.435610 -2.501568 -107.816920 -1.102804 -2.178125 -68.530081 0.000000 -0.000000 0.000001 20.527749 -14.391173 1.992891 37.411101 41.693753 -31.944009 30.956962 41.203738 -19.600293 -0.000001 0.000001 0.000003 -0.573328 7.836078 -2.475371 -21.384112 11.741700 46.117789 -130.425386 88.500469 128.840153 -8.049351 29.136883 5.110285 20.527725 14.391203 -1.992825 37.411111 -41.693718 31.944078 30.956849 -41.203748 19.600227 0.000000 0.000000 0.000000 3.264318 13.025788 65.759887 -2.435601 2.501548 107.816817 -1.102851 2.178113 68.530122 0.000001 -0.000000 -0.000000 -61.473301 -2.615051 -7.418198 42.711516 20.714758 4.466160 -17.340436 9.385265 -2.544307 6.388986 -8.379478 -14.173489 0.000001 -0.000001 -0.000000 9.411770 -1.855582 -1.115787 51.164623 1.313341 -0.217689 -19.873176 -5.943284 3.813488 -46.929892 2.663450 2.047733 0.000000 0.000000 0.000000 
-1.625154 73.439964 20.609943 0.644794 1.646979 -4.425899 9.376402 5.530134 -1.004047 2.793307 10.035668 -1.128500 -9.198248 10.038839 0.988602 8.338741 -7.812863 -5.752910 0.161631 -11.594553 7.615529 -0.000000 -0.000000 0.000000 2.383491 2.345946 4.262410 21.019187 35.596125 -50.707188 48.179222 -47.181410 -4.097349 -3.167374 -14.176821 8.019292 3.380944 -12.677908 -65.689440 -2.289740 -2.637975 -106.998561 -1.047541 -2.242442 -70.133065 0.000001 0.000001 -0.000001 22.191139 -15.228935 1.927370 38.118142 41.811928 -33.074119 30.741544 42.545296 -21.063883 -0.000000 -0.000000 0.000001 -0.622471 10.002058 3.726127 -17.029072 3.629693 47.943492 -76.945523 94.804542 88.421655 -13.325975 28.534495 4.538764 22.191136 15.228977 -1.927292 38.118166 -41.811908 33.074167 30.741486 -42.545320 21.063897 0.000001 -0.000000 -0.000000 3.380947 12.677903 65.689419 -2.289722 2.637980 106.998499 -1.047577 2.242453 70.133059 -0.000001 0.000002 -0.000002 -61.831531 -6.175323 -2.320694 39.768216 17.046002 -0.791042 -16.558610 9.127845 -0.818034 6.231208 -2.700048 -11.741052 0.000000 0.000000 -0.000001 20.681727 -3.284180 3.697923 45.433752 1.367739 -0.514955 -11.676609 -4.940465 3.045435 -55.496988 2.250576 3.460636 -0.000000 -0.000000 0.000000 
